<svg width="21" height="23" viewBox="0 0 21 23" fill="none" xmlns="http://www.w3.org/2000/svg">
<g clip-path="url(#clip0_3454_480)">
<path d="M10.1992 10.6548V18.5044" stroke="white" stroke-linecap="round" stroke-linejoin="round"/>
<path d="M7.85938 17.8114V10.861C7.85938 10.7084 7.90738 10.5558 7.99138 10.432L9.80342 7.78801C9.99142 7.51576 10.3874 7.51164 10.5754 7.78801L12.4195 10.4527C12.5075 10.5805 12.5515 10.729 12.5515 10.8817V18.2363" stroke="white" stroke-linecap="round" stroke-linejoin="round"/>
<path d="M7.89062 10.6548C7.89062 10.6548 8.97065 9.38433 10.2027 10.6548C10.2027 10.6548 11.1827 9.28121 12.5147 10.6548" stroke="white" stroke-linecap="round" stroke-linejoin="round"/>
<path d="M11.9851 20.0924H8.41704C8.10903 20.0924 7.85703 19.8326 7.85703 19.515V17.5268C7.85703 17.1432 7.64902 16.7843 7.31301 16.6152C5.12097 15.5097 3.61694 13.175 3.64894 10.4815C3.69294 6.96712 6.597 3.93122 10.0091 3.84872C13.6851 3.75797 16.6932 6.80212 16.6932 10.5723C16.6932 13.208 15.2252 15.4891 13.0851 16.5904C12.7531 16.7596 12.5531 17.1143 12.5531 17.4938V19.515C12.5531 19.8326 12.3011 20.0924 11.9931 20.0924H11.9851Z" stroke="white" stroke-linecap="round" stroke-linejoin="round"/>
<path d="M8.87891 20.0925V21.0412C8.87891 21.3052 9.08691 21.5238 9.34692 21.5238H10.9829C11.239 21.5238 11.451 21.3093 11.451 21.0412V20.0925" stroke="white" stroke-linecap="round" stroke-linejoin="round"/>
<path d="M2.47494 10.0237H0.878906" stroke="white" stroke-linecap="round" stroke-linejoin="round"/>
<path d="M19.4085 10.0237H17.8125" stroke="white" stroke-linecap="round" stroke-linejoin="round"/>
<path d="M10.1719 2.63186V0.899414" stroke="white" stroke-linecap="round" stroke-linejoin="round"/>
<path d="M5.08096 4.79748L3.96094 3.67139" stroke="white" stroke-linecap="round" stroke-linejoin="round"/>
<path d="M15.2891 4.79748L16.4371 3.64252" stroke="white" stroke-linecap="round" stroke-linejoin="round"/>
<path d="M16.8047 14.7796L18.0087 16.0212" stroke="white" stroke-linecap="round" stroke-linejoin="round"/>
<path d="M2.25 15.9924L3.42602 14.8374" stroke="white" stroke-linecap="round" stroke-linejoin="round"/>
<path d="M7.85938 18.5044H12.5395" stroke="white" stroke-linecap="round" stroke-linejoin="round"/>
</g>
<defs>
<clipPath id="clip0_3454_480">
<rect width="20.2877" height="22.4232" fill="white"/>
</clipPath>
</defs>
</svg>
