<svg width="9" height="15" viewBox="0 0 9 15" fill="none" xmlns="http://www.w3.org/2000/svg">
<path d="M7.96124 0H5.97858C3.75115 0 2.31005 1.41734 2.31005 3.61686V5.28415H0.312086C0.140745 5.28415 0 5.41648 0 5.58409V8.00121C0 8.16588 0.140745 8.30115 0.312086 8.30115H2.30699V14.3998C2.30699 14.5645 2.44773 14.6998 2.61907 14.6998H5.21979C5.39113 14.6998 5.53187 14.5645 5.53187 14.3998V8.30115H7.86334C8.03468 8.30115 8.17542 8.16588 8.17542 8.00121V5.58409C8.17542 5.50469 8.14482 5.42824 8.08363 5.37237C8.0255 5.3165 7.94595 5.28415 7.86334 5.28415H5.52881V3.86975C5.52881 3.19049 5.69709 2.8435 6.61805 2.8435H7.95512C8.12647 2.8435 8.26721 2.70824 8.26721 2.54357V0.302876C8.26721 0.138205 8.12953 0.00294054 7.95512 0.00294054L7.96124 0Z" fill="white"/>
</svg>
