<svg width="16" height="15" viewBox="0 0 16 15" fill="none" xmlns="http://www.w3.org/2000/svg">
<g clip-path="url(#clip0_3119_4843)">
<path d="M15.6216 9.01276V14.7027H12.2716V9.39503C12.2716 8.06296 11.7879 7.15139 10.5756 7.15139C9.65005 7.15139 9.10067 7.76303 8.85882 8.35702C8.76925 8.56874 8.74835 8.86279 8.74835 9.15978V14.6998H5.3983C5.3983 14.6998 5.44308 5.71053 5.3983 4.77838H8.74835V6.18396C8.74835 6.18396 8.73342 6.20454 8.72745 6.2163H8.74835V6.18396C9.19323 5.51057 9.98745 4.54608 11.767 4.54608C13.9705 4.54608 15.6216 5.96342 15.6216 9.00982V9.01276ZM1.89597 0C0.749432 0 0 0.741016 0 1.71434C0 2.68765 0.728531 3.42867 1.85119 3.42867H1.87209C3.03953 3.42867 3.76507 2.66707 3.76507 1.71434C3.74417 0.741016 3.03953 0 1.89299 0H1.89597ZM0.200048 14.7027H3.54711V4.78132H0.200048V14.7027Z" fill="white"/>
</g>
<defs>
<clipPath id="clip0_3119_4843">
<rect width="15.6216" height="14.7027" fill="white"/>
</clipPath>
</defs>
</svg>
