<svg width="17" height="12" viewBox="0 0 17 12" fill="none" xmlns="http://www.w3.org/2000/svg">
<g clip-path="url(#clip0_3119_4851)">
<path d="M16.2019 1.86832C16.0122 1.13829 15.4534 0.561954 14.7456 0.362855C13.4519 -0.00390625 8.27366 -0.00390625 8.27366 -0.00390625C8.27366 -0.00390625 3.09542 -0.00390625 1.80171 0.348883C1.10406 0.547983 0.531709 1.13829 0.342055 1.86832C0 3.20264 0 5.97256 0 5.97256C0 5.97256 0 8.75645 0.342055 10.0768C0.531709 10.8068 1.09051 11.3832 1.80171 11.5823C3.10897 11.949 8.27366 11.949 8.27366 11.949C8.27366 11.949 13.4519 11.949 14.7456 11.5962C15.4534 11.4006 16.0122 10.8243 16.2053 10.0943C16.5473 8.75995 16.5473 5.99003 16.5473 5.99003C16.5473 5.99003 16.5609 3.20613 16.2053 1.87182L16.2019 1.86832ZM6.62096 8.52941V3.41222L10.9254 5.96907L6.62096 8.52592V8.52941Z" fill="white"/>
</g>
<defs>
<clipPath id="clip0_3119_4851">
<rect width="16.5405" height="11.9459" fill="white"/>
</clipPath>
</defs>
</svg>
