<svg width="50" height="50" viewBox="0 0 50 50" fill="none" xmlns="http://www.w3.org/2000/svg">
<g clip-path="url(#clip0_3796_2331)">
<path d="M24.9989 34.0195C29.9365 34.0195 33.9393 30.0074 33.9393 25.0583C33.9393 20.1092 29.9365 16.0972 24.9989 16.0972C20.0613 16.0972 16.0586 20.1092 16.0586 25.0583C16.0586 30.0074 20.0613 34.0195 24.9989 34.0195Z" stroke="#30B6F9" stroke-width="1.5" stroke-linecap="round" stroke-linejoin="round"/>
<path d="M9.91011 31.8058C8.98993 29.7475 8.47656 27.4563 8.47656 25.0582C8.47656 15.9126 15.8768 8.49512 25.0012 8.49512C34.1255 8.49512 41.5258 15.9126 41.5258 25.0582C41.5258 27.5825 40.964 29.9708 39.9566 32.1068" stroke="#30B6F9" stroke-width="1.5" stroke-linecap="round" stroke-linejoin="round"/>
<path d="M4.87224 38.6603C2.25698 34.7768 0.726562 30.0972 0.726562 25.0584C0.726562 11.6215 11.5944 0.728271 25.0001 0.728271C38.4058 0.728271 49.2736 11.6215 49.2736 25.0584C49.2736 30.272 47.6367 35.0972 44.8567 39.0584" stroke="#30B6F9" stroke-width="1.5" stroke-linecap="round" stroke-linejoin="round"/>
<path d="M10.8086 49.272H39.005V48.1457C39.005 40.3399 32.6896 34.0195 24.9117 34.0195C17.124 34.0195 10.8183 40.3496 10.8183 48.1457V49.272H10.8086Z" stroke="#30B6F9" stroke-width="1.5" stroke-linecap="round" stroke-linejoin="round"/>
</g>
<defs>
<clipPath id="clip0_3796_2331">
<rect width="50" height="50" fill="white"/>
</clipPath>
</defs>
</svg>
