<svg width="50" height="50" viewBox="0 0 50 50" fill="none" xmlns="http://www.w3.org/2000/svg">
<g clip-path="url(#clip0_3796_2336)">
<path d="M47.293 25.4951H49.2736" stroke="#30B6F9" stroke-width="1.5" stroke-linecap="round" stroke-linejoin="round"/>
<path d="M5.95312 25.4951V39.3689" stroke="#30B6F9" stroke-width="1.5" stroke-linecap="round" stroke-linejoin="round"/>
<path d="M0.726562 23.4658C0.726562 31.893 11.1732 31.893 11.1732 23.4658C11.1732 19.7571 8.83336 10.6309 5.94986 10.6309C3.06637 10.6309 0.726562 19.7571 0.726562 23.4658Z" stroke="#30B6F9" stroke-width="1.5" stroke-linecap="round" stroke-linejoin="round"/>
<path d="M38.875 11.6216V20.5439" stroke="#30B6F9" stroke-width="1.5" stroke-linecap="round" stroke-linejoin="round"/>
<path d="M34.4062 9.5824C34.4062 15.3882 43.3189 15.3882 43.3189 9.5824C43.3189 7.01929 41.3189 0.728027 38.8626 0.728027C36.4063 0.728027 34.4062 7.01929 34.4062 9.5824Z" stroke="#30B6F9" stroke-width="1.5" stroke-linecap="round" stroke-linejoin="round"/>
<path d="M0.726562 44.3203H2.70714" stroke="#30B6F9" stroke-width="1.5" stroke-linecap="round" stroke-linejoin="round"/>
<path d="M7.66016 44.3203H9.64074" stroke="#30B6F9" stroke-width="1.5" stroke-linecap="round" stroke-linejoin="round"/>
<path d="M21.5352 5.6798V3.69922" stroke="#30B6F9" stroke-width="1.5" stroke-linecap="round" stroke-linejoin="round"/>
<path d="M21.5352 12.6114V10.6309" stroke="#30B6F9" stroke-width="1.5" stroke-linecap="round" stroke-linejoin="round"/>
<path d="M40.3594 25.4951H42.34" stroke="#30B6F9" stroke-width="1.5" stroke-linecap="round" stroke-linejoin="round"/>
<path d="M33.418 25.4951H35.3986" stroke="#30B6F9" stroke-width="1.5" stroke-linecap="round" stroke-linejoin="round"/>
<path d="M26.4844 25.4951H28.465" stroke="#30B6F9" stroke-width="1.5" stroke-linecap="round" stroke-linejoin="round"/>
<path d="M21.5352 19.5533V17.5728" stroke="#30B6F9" stroke-width="1.5" stroke-linecap="round" stroke-linejoin="round"/>
<path d="M21.5352 26.4855V24.5049" stroke="#30B6F9" stroke-width="1.5" stroke-linecap="round" stroke-linejoin="round"/>
<path d="M21.5352 33.4176V31.437" stroke="#30B6F9" stroke-width="1.5" stroke-linecap="round" stroke-linejoin="round"/>
<path d="M14.6016 44.3202H18.5627C20.2035 44.3202 21.5336 42.9901 21.5336 41.3493V38.3784" stroke="#30B6F9" stroke-width="1.5" stroke-linecap="round" stroke-linejoin="round"/>
<path d="M49.2703 30.4468H29.4547C27.8139 30.4468 26.4838 31.7769 26.4838 33.4176V43.3206C26.4838 46.6021 23.8236 49.2623 20.5421 49.2623H0.726562" stroke="#30B6F9" stroke-width="1.5" stroke-linecap="round" stroke-linejoin="round"/>
<path d="M26.4844 0.728027V17.5727C26.4844 19.2135 27.8145 20.5436 29.4552 20.5436H49.2708" stroke="#30B6F9" stroke-width="1.5" stroke-linecap="round" stroke-linejoin="round"/>
<path d="M0.726562 39.3688H13.6101C15.2508 39.3688 16.5809 38.0387 16.5809 36.3979V0.728027" stroke="#30B6F9" stroke-width="1.5" stroke-linecap="round" stroke-linejoin="round"/>
</g>
<defs>
<clipPath id="clip0_3796_2336">
<rect width="50" height="50" fill="white"/>
</clipPath>
</defs>
</svg>
