<svg width="35" height="51" viewBox="0 0 35 51" fill="none" xmlns="http://www.w3.org/2000/svg">
<g clip-path="url(#clip0_3796_963)">
<path d="M15.4265 34.5512V19.6242C15.4265 17.4396 13.6533 15.666 11.4691 15.666C9.28493 15.666 7.51172 17.4396 7.51172 19.6242C7.51172 21.8089 9.28493 23.5824 11.4691 23.5824H24.1936C26.3778 23.5824 28.151 21.8089 28.151 19.6242C28.151 17.4396 26.3778 15.666 24.1936 15.666C22.0094 15.666 20.2362 17.4396 20.2362 19.6242V34.5512" stroke="#1E45A2" stroke-width="2" stroke-linecap="round" stroke-linejoin="round"/>
<path d="M27.6122 34.5508H7.39916C6.52071 34.5508 5.80859 35.263 5.80859 36.1417V41.6451C5.80859 42.5237 6.52071 43.236 7.39916 43.236H27.6122C28.4907 43.236 29.2028 42.5237 29.2028 41.6451V36.1417C29.2028 35.263 28.4907 34.5508 27.6122 34.5508Z" stroke="#1E45A2" stroke-width="2" stroke-linecap="round" stroke-linejoin="round"/>
<path d="M10.9844 43.2361L13.8535 49.5312C14.0513 49.9575 14.4775 50.2315 14.9418 50.2315H20.1244C20.5962 50.2315 21.03 49.9499 21.2203 49.516L24.0057 43.2285" stroke="#1E45A2" stroke-width="2" stroke-linecap="round" stroke-linejoin="round"/>
<path d="M26.9185 34.5511L32.3218 25.3102H32.3142C33.5471 22.9734 34.2396 20.3168 34.2396 17.5004C34.2396 8.25187 26.7435 0.761719 17.5045 0.761719C8.26552 0.761719 0.761719 8.25948 0.761719 17.5004C0.761719 20.3244 1.46187 22.981 2.68714 25.3102L8.09049 34.5511" stroke="#1E45A2" stroke-width="2" stroke-linecap="round" stroke-linejoin="round"/>
</g>
<defs>
<clipPath id="clip0_3796_963">
<rect width="35" height="51" fill="white"/>
</clipPath>
</defs>
</svg>
