<svg width="63" height="65" viewBox="0 0 63 65" fill="none" xmlns="http://www.w3.org/2000/svg">
<g clip-path="url(#clip0_3796_1979)">
<path d="M5.70871 45.0841L1.37669 49.4288C0.801898 50.0052 0.801896 50.9398 1.37669 51.5163L13.4476 63.6224C14.0224 64.1988 14.9543 64.1988 15.5291 63.6224L19.8611 59.2777C20.4359 58.7013 20.4359 57.7666 19.8611 57.1902L7.79021 45.0841C7.21542 44.5077 6.2835 44.5077 5.70871 45.0841Z" stroke="#30B6F9" stroke-width="1.5" stroke-linecap="round" stroke-linejoin="round"/>
<path d="M8.23828 45.5454L18.8305 34.9224H38.191C40.4805 34.9224 42.3423 36.7896 42.3423 39.0858C42.3423 41.382 40.4805 43.2492 38.191 43.2492H27.6616" stroke="#30B6F9" stroke-width="1.5" stroke-linecap="round" stroke-linejoin="round"/>
<path d="M19.3867 56.7236L41.7915 53.7209L60.7619 34.6448C62.4854 32.9163 62.4854 30.1155 60.7619 28.387C59.0385 26.6586 56.2457 26.6586 54.5097 28.387L47.5279 35.3892" stroke="#30B6F9" stroke-width="1.5" stroke-linecap="round" stroke-linejoin="round"/>
<path d="M41.0234 0.946289H16.6184C14.812 0.946289 13.3477 2.41492 13.3477 4.22657V23.1765C13.3477 24.9881 14.812 26.4568 16.6184 26.4568H41.0234C42.8298 26.4568 44.2941 24.9881 44.2941 23.1765V4.22657C44.2941 2.41492 42.8298 0.946289 41.0234 0.946289Z" stroke="#30B6F9" stroke-width="1.5" stroke-linecap="round" stroke-linejoin="round"/>
<path d="M24.4922 0.946289V8.94512C24.4922 9.4624 24.9073 9.87874 25.4231 9.87874H32.4175C32.9333 9.87874 33.3484 9.4624 33.3484 8.94512V0.946289" stroke="#30B6F9" stroke-width="1.5" stroke-linecap="round" stroke-linejoin="round"/>
</g>
<defs>
<clipPath id="clip0_3796_1979">
<rect width="63" height="65" fill="white"/>
</clipPath>
</defs>
</svg>
