<svg width="63" height="65" viewBox="0 0 63 65" fill="none" xmlns="http://www.w3.org/2000/svg">
<g clip-path="url(#clip0_3796_1985)">
<path d="M38.2855 62.5389V54.6127C39.8484 54.1457 41.3478 53.5146 42.7837 52.7447L47.0913 57.0865C47.752 57.7554 48.8321 57.7554 49.4929 57.0865L56.6976 49.8418C57.3583 49.1729 57.3583 48.0874 56.6976 47.4311L52.39 43.0894C53.1651 41.6505 53.7877 40.136 54.2452 38.5583H60.3444C61.2847 38.5583 62.0471 37.7884 62.0471 36.8544V26.6059C62.0471 25.6593 61.2847 24.902 60.3444 24.902H54.2452C53.7877 23.3369 53.1651 21.8098 52.39 20.3709L56.6976 16.0292C57.3583 15.3602 57.3583 14.2748 56.6976 13.6185L49.4929 6.37384C48.8321 5.70491 47.752 5.70491 47.0913 6.37384L42.7837 10.7156C41.3478 9.93306 39.8484 9.31462 38.2855 8.84763V2.65054C38.2855 1.70394 37.5231 0.946655 36.5828 0.946655H26.4047C25.4644 0.946655 24.702 1.71656 24.702 2.65054V8.79714C23.1391 9.26413 21.6397 9.8952 20.2038 10.6651L15.8962 6.32335C15.2355 5.65442 14.1554 5.65442 13.4947 6.32335L6.28995 13.568C5.6292 14.2369 5.6292 15.3224 6.28995 15.9787L10.5975 20.3204C9.82243 21.7593 9.1998 23.2738 8.74235 24.8515H2.65583C1.71553 24.8515 0.953125 25.6214 0.953125 26.5554V36.8166C0.978538 37.7505 1.72824 38.4952 2.65583 38.5204H8.75506C9.2125 40.0855 9.83513 41.6127 10.6102 43.0515L6.30266 47.3933C5.64191 48.0622 5.64191 49.1476 6.30266 49.8039L13.5074 57.0486C14.1681 57.7175 15.2482 57.7175 15.909 57.0486L20.2165 52.7068C21.6524 53.4894 23.1518 54.1078 24.7147 54.5748V62.501C24.7147 63.334 25.3882 64.0156 26.2268 64.0156H36.7861C37.6121 64.0156 38.2855 63.334 38.2855 62.501V62.5389Z" stroke="#30B6F9" stroke-width="1.5" stroke-linecap="round" stroke-linejoin="round"/>
<path d="M31.4987 46.1564C39.0919 46.1564 45.2474 40.0422 45.2474 32.5001C45.2474 24.9579 39.0919 18.8438 31.4987 18.8438C23.9055 18.8438 17.75 24.9579 17.75 32.5001C17.75 40.0422 23.9055 46.1564 31.4987 46.1564Z" stroke="#30B6F9" stroke-width="1.5" stroke-linecap="round" stroke-linejoin="round"/>
</g>
<defs>
<clipPath id="clip0_3796_1985">
<rect width="63" height="65" fill="white"/>
</clipPath>
</defs>
</svg>
