<svg width="65" height="65" viewBox="0 0 65 65" fill="none" xmlns="http://www.w3.org/2000/svg">
<g clip-path="url(#clip0_3796_1994)">
<path d="M47.3359 13.4291C54.5301 18.0233 59.4484 25.8611 59.992 34.8854" stroke="#30B6F9" stroke-width="1.5" stroke-linecap="round" stroke-linejoin="round"/>
<path d="M5.07031 34.8855C5.61398 25.9622 10.4311 18.1874 17.5115 13.568" stroke="#30B6F9" stroke-width="1.5" stroke-linecap="round" stroke-linejoin="round"/>
<path d="M45.0369 61.0623C41.2818 62.9807 37.0336 64.0535 32.5326 64.0535C28.0315 64.0535 23.935 63.0186 20.2305 61.1632" stroke="#30B6F9" stroke-width="1.5" stroke-linecap="round" stroke-linejoin="round"/>
<path d="M32.4314 16.7738C36.8096 16.7738 40.3588 13.2308 40.3588 8.86025C40.3588 4.48969 36.8096 0.946655 32.4314 0.946655C28.0531 0.946655 24.5039 4.48969 24.5039 8.86025C24.5039 13.2308 28.0531 16.7738 32.4314 16.7738Z" stroke="#30B6F9" stroke-width="1.5" stroke-linecap="round" stroke-linejoin="round"/>
<path d="M8.87666 57.8564C13.2549 57.8564 16.8041 54.3133 16.8041 49.9428C16.8041 45.5722 13.2549 42.0292 8.87666 42.0292C4.49846 42.0292 0.949219 45.5722 0.949219 49.9428C0.949219 54.3133 4.49846 57.8564 8.87666 57.8564Z" stroke="#30B6F9" stroke-width="1.5" stroke-linecap="round" stroke-linejoin="round"/>
<path d="M56.1228 57.8564C60.501 57.8564 64.0502 54.3133 64.0502 49.9428C64.0502 45.5722 60.501 42.0292 56.1228 42.0292C51.7446 42.0292 48.1953 45.5722 48.1953 49.9428C48.1953 54.3133 51.7446 57.8564 56.1228 57.8564Z" stroke="#30B6F9" stroke-width="1.5" stroke-linecap="round" stroke-linejoin="round"/>
</g>
<defs>
<clipPath id="clip0_3796_1994">
<rect width="65" height="65" fill="white"/>
</clipPath>
</defs>
</svg>
