<svg width="44" height="65" viewBox="0 0 44 65" fill="none" xmlns="http://www.w3.org/2000/svg">
<g clip-path="url(#clip0_3796_2001)">
<path d="M19.364 44.1217V24.954C19.364 22.1488 17.1104 19.8713 14.3344 19.8713C11.5584 19.8713 9.30469 22.1488 9.30469 24.954C9.30469 27.7593 11.5584 30.0368 14.3344 30.0368H30.5067C33.2827 30.0368 35.5364 27.7593 35.5364 24.954C35.5364 22.1488 33.2827 19.8713 30.5067 19.8713C27.7307 19.8713 25.477 22.1488 25.477 24.954V44.1217" stroke="#30B6F9" stroke-width="1.5" stroke-linecap="round" stroke-linejoin="round"/>
<path d="M34.8483 44.1218H9.15826C8.04179 44.1218 7.13672 45.0364 7.13672 46.1647V53.2316C7.13672 54.3598 8.04179 55.2745 9.15826 55.2745H34.8483C35.9648 55.2745 36.8698 54.3598 36.8698 53.2316V46.1647C36.8698 45.0364 35.9648 44.1218 34.8483 44.1218Z" stroke="#30B6F9" stroke-width="1.5" stroke-linecap="round" stroke-linejoin="round"/>
<path d="M13.7148 55.2744L17.3614 63.3579C17.6128 63.9052 18.1545 64.2571 18.7445 64.2571H25.3315C25.9312 64.2571 26.4825 63.8955 26.7243 63.3383L30.2644 55.2646" stroke="#30B6F9" stroke-width="1.5" stroke-linecap="round" stroke-linejoin="round"/>
<path d="M33.9708 44.1219L40.8382 32.2557H40.8286C42.3955 29.255 43.2757 25.8437 43.2757 22.2271C43.2757 10.361 33.7483 0.733154 21.9963 0.733154C10.2443 0.733154 0.726562 10.361 0.726562 22.2271C0.726562 25.8535 1.61643 29.2647 3.17369 32.2557L10.0411 44.1219" stroke="#30B6F9" stroke-width="1.5" stroke-linecap="round" stroke-linejoin="round"/>
</g>
<defs>
<clipPath id="clip0_3796_2001">
<rect width="44" height="65" fill="white"/>
</clipPath>
</defs>
</svg>
