<svg width="66" height="65" viewBox="0 0 66 65" fill="none" xmlns="http://www.w3.org/2000/svg">
<g clip-path="url(#clip0_3796_2006)">
<path d="M30.8008 9.2749H64.7472" stroke="#30B6F9" stroke-width="2" stroke-linecap="round" stroke-linejoin="round"/>
<path d="M1.25391 9.2749H14.7046" stroke="#30B6F9" stroke-width="2" stroke-linecap="round" stroke-linejoin="round"/>
<path d="M51.4219 32.5H64.7472" stroke="#30B6F9" stroke-width="2" stroke-linecap="round" stroke-linejoin="round"/>
<path d="M1.25391 32.5H35.3257" stroke="#30B6F9" stroke-width="2" stroke-linecap="round" stroke-linejoin="round"/>
<path d="M31 55.7251H64.7459" stroke="#30B6F9" stroke-width="2" stroke-linecap="round" stroke-linejoin="round"/>
<path d="M1.25391 55.7251H14.9052" stroke="#30B6F9" stroke-width="2" stroke-linecap="round" stroke-linejoin="round"/>
<path d="M22.751 17.3C27.1957 17.3 30.7989 13.7071 30.7989 9.275C30.7989 4.84291 27.1957 1.25 22.751 1.25C18.3063 1.25 14.7031 4.84291 14.7031 9.275C14.7031 13.7071 18.3063 17.3 22.751 17.3Z" stroke="#30B6F9" stroke-width="2" stroke-linecap="round" stroke-linejoin="round"/>
<path d="M43.3721 40.5251C47.8168 40.5251 51.4199 36.9322 51.4199 32.5001C51.4199 28.068 47.8168 24.4751 43.3721 24.4751C38.9274 24.4751 35.3242 28.068 35.3242 32.5001C35.3242 36.9322 38.9274 40.5251 43.3721 40.5251Z" stroke="#30B6F9" stroke-width="2" stroke-linecap="round" stroke-linejoin="round"/>
<path d="M22.9541 63.75C27.3988 63.75 31.002 60.157 31.002 55.725C31.002 51.2929 27.3988 47.7 22.9541 47.7C18.5094 47.7 14.9062 51.2929 14.9062 55.725C14.9062 60.157 18.5094 63.75 22.9541 63.75Z" stroke="#30B6F9" stroke-width="2" stroke-linecap="round" stroke-linejoin="round"/>
</g>
<defs>
<clipPath id="clip0_3796_2006">
<rect width="66" height="65" fill="white"/>
</clipPath>
</defs>
</svg>
