<svg width="65" height="65" viewBox="0 0 65 65" fill="none" xmlns="http://www.w3.org/2000/svg">
<g clip-path="url(#clip0_3796_743)">
<path d="M32.4994 15.7363C23.2527 15.7363 15.7227 23.2533 15.7227 32.5C15.7227 41.7467 23.2527 49.2767 32.4994 49.2767C41.7461 49.2767 49.2631 41.7467 49.2631 32.5C49.2631 23.2533 41.7461 15.7363 32.4994 15.7363Z" stroke="#30B6F9" stroke-width="1.5" stroke-linecap="round" stroke-linejoin="round"/>
<path d="M24.3203 32.3702L29.6915 37.6373L40.4468 27.0381" stroke="#30B6F9" stroke-width="1.5" stroke-linecap="round" stroke-linejoin="round"/>
<path d="M35.5828 2.35382L41.3831 8.86942C41.7733 9.3116 42.3455 9.54569 42.9307 9.50668L51.6442 8.99947C54.1022 8.85642 56.144 10.8852 56.0009 13.3562L55.4937 22.0697C55.4547 22.6549 55.7018 23.2272 56.131 23.6173L62.6466 29.4176C64.4803 31.0563 64.4803 33.9304 62.6466 35.5691L56.131 41.3694C55.6888 41.7596 55.4547 42.3318 55.4937 42.917L56.0009 51.6305C56.144 54.0885 54.1152 56.1303 51.6442 55.9873L42.9307 55.4801C42.3455 55.4411 41.7733 55.6882 41.3831 56.1173L35.5828 62.6329C33.9441 64.4667 31.07 64.4667 29.4313 62.6329L23.631 56.1173C23.2408 55.6751 22.6686 55.4411 22.0834 55.4801L13.3699 55.9873C10.9119 56.1303 8.87009 54.1015 9.01315 51.6305L9.52035 42.917C9.55936 42.3318 9.31227 41.7596 8.88309 41.3694L2.36749 35.5691C0.533754 33.9304 0.533754 31.0563 2.36749 29.4176L8.88309 23.6173C9.32527 23.2272 9.55936 22.6549 9.52035 22.0697L9.01315 13.3562C8.87009 10.8982 10.8989 8.85642 13.3699 8.99947L22.0834 9.50668C22.6686 9.54569 23.2408 9.29859 23.631 8.86942L29.4313 2.35382C31.07 0.520082 33.9441 0.520082 35.5828 2.35382Z" stroke="#30B6F9" stroke-width="1.5" stroke-linecap="round" stroke-linejoin="round"/>
</g>
<defs>
<clipPath id="clip0_3796_743">
<rect width="65" height="65" fill="white"/>
</clipPath>
</defs>
</svg>
