<svg width="65" height="65" viewBox="0 0 65 65" fill="none" xmlns="http://www.w3.org/2000/svg">
<g clip-path="url(#clip0_3796_748)">
<path d="M36.7023 47.7086C35.3644 48.0746 33.9508 48.2765 32.4994 48.2765C23.7906 48.2765 16.7227 41.2086 16.7227 32.4998C16.7227 23.7911 23.7906 16.7231 32.4994 16.7231C33.9508 16.7231 35.3644 16.9251 36.7023 17.2911V47.7086Z" stroke="#30B6F9" stroke-width="1.5" stroke-linecap="round" stroke-linejoin="round"/>
<path d="M58.7905 17.7835C61.6972 17.7835 64.0536 15.4272 64.0536 12.5204C64.0536 9.6137 61.6972 7.25732 58.7905 7.25732C55.8837 7.25732 53.5273 9.6137 53.5273 12.5204C53.5273 15.4272 55.8837 17.7835 58.7905 17.7835Z" stroke="#30B6F9" stroke-width="1.5" stroke-linecap="round" stroke-linejoin="round"/>
<path d="M58.7905 37.763C61.6972 37.763 64.0536 35.4067 64.0536 32.4999C64.0536 29.5932 61.6972 27.2368 58.7905 27.2368C55.8837 27.2368 53.5273 29.5932 53.5273 32.4999C53.5273 35.4067 55.8837 37.763 58.7905 37.763Z" stroke="#30B6F9" stroke-width="1.5" stroke-linecap="round" stroke-linejoin="round"/>
<path d="M36.7031 32.5H53.54" stroke="#30B6F9" stroke-width="1.5" stroke-linecap="round" stroke-linejoin="round"/>
<path d="M58.7905 57.7428C61.6972 57.7428 64.0536 55.3864 64.0536 52.4797C64.0536 49.5729 61.6972 47.2166 58.7905 47.2166C55.8837 47.2166 53.5273 49.5729 53.5273 52.4797C53.5273 55.3864 55.8837 57.7428 58.7905 57.7428Z" stroke="#30B6F9" stroke-width="1.5" stroke-linecap="round" stroke-linejoin="round"/>
<path d="M53.54 12.5205H48.2769L41.9662 20.9263H36.7031" stroke="#30B6F9" stroke-width="1.5" stroke-linecap="round" stroke-linejoin="round"/>
<path d="M53.54 52.4796H48.2769L41.9662 44.0737H36.7031" stroke="#30B6F9" stroke-width="1.5" stroke-linecap="round" stroke-linejoin="round"/>
<path d="M36.7016 0.946777V64.0536H28.2832L27.4249 57.238C24.2065 56.5817 21.2152 55.3196 18.5774 53.5652L13.1502 57.7934L7.20551 51.8487L11.4337 46.4215C9.67929 43.7837 8.41716 40.7924 7.76085 37.574L0.945312 36.7157V28.2973L7.76085 27.439C8.41716 24.2206 9.67929 21.2293 11.4337 18.5914L7.20551 13.1643L13.1502 7.21959L18.5774 11.4477C21.2152 9.69338 24.2065 8.43124 27.4249 7.77493L28.2832 0.959399H36.7016V0.946777Z" stroke="#30B6F9" stroke-width="1.5" stroke-linecap="round" stroke-linejoin="round"/>
</g>
<defs>
<clipPath id="clip0_3796_748">
<rect width="65" height="65" fill="white"/>
</clipPath>
</defs>
</svg>
