<svg width="61" height="65" viewBox="0 0 61 65" fill="none" xmlns="http://www.w3.org/2000/svg">
<g clip-path="url(#clip0_3796_762)">
<path d="M48.9139 64.0716L58.7904 50.0316C59.6238 48.843 60.084 47.4192 60.084 45.9582V26.0868C60.084 24.5516 58.8401 23.3135 57.2977 23.3135C55.7553 23.3135 54.5114 24.5516 54.5114 26.0868V42.4173C54.5114 43.2344 54.2004 44.0268 53.6407 44.6335L46.8242 52.062" stroke="#30B6F9" stroke-width="1.5" stroke-linecap="round" stroke-linejoin="round"/>
<path d="M35.2422 64.0716L37.4314 53.8821C37.9663 51.3811 39.2848 49.1154 41.2004 47.4068L48.0417 41.303C49.3603 40.1268 51.3753 40.2383 52.557 41.5506C53.6516 42.764 53.6517 44.6211 52.5446 45.8221L51.0768 47.4192" stroke="#30B6F9" stroke-width="1.5" stroke-linecap="round" stroke-linejoin="round"/>
<path d="M12.0919 64.0716L2.21551 50.0316C1.38211 48.843 0.921875 47.4192 0.921875 45.9582V26.0868C0.921875 24.5516 2.16576 23.3135 3.70817 23.3135C5.25059 23.3135 6.49447 24.5516 6.49447 26.0868V42.4173C6.49447 43.2344 6.80544 44.0268 7.36519 44.6335L14.1817 52.062" stroke="#30B6F9" stroke-width="1.5" stroke-linecap="round" stroke-linejoin="round"/>
<path d="M25.7749 64.0716L23.5856 53.8821C23.0508 51.3811 21.7323 49.1154 19.8167 47.4068L12.9753 41.303C11.6568 40.1268 9.64173 40.2383 8.46004 41.5506C7.36542 42.764 7.36542 44.6211 8.47248 45.8221L9.94026 47.4192" stroke="#30B6F9" stroke-width="1.5" stroke-linecap="round" stroke-linejoin="round"/>
<path d="M45.7632 32.8592C45.7632 24.4649 38.9342 17.6677 30.5007 17.6677C22.0672 17.6677 15.2383 24.4649 15.2383 32.8592H45.7756H45.7632Z" stroke="#30B6F9" stroke-width="1.5" stroke-linecap="round" stroke-linejoin="round"/>
<path d="M30.6237 17.2716C35.1577 17.2716 38.8333 13.6131 38.8333 9.10014C38.8333 4.58718 35.1577 0.928711 30.6237 0.928711C26.0896 0.928711 22.4141 4.58718 22.4141 9.10014C22.4141 13.6131 26.0896 17.2716 30.6237 17.2716Z" stroke="#30B6F9" stroke-width="1.5" stroke-linecap="round" stroke-linejoin="round"/>
</g>
<defs>
<clipPath id="clip0_3796_762">
<rect width="61" height="65" fill="white"/>
</clipPath>
</defs>
</svg>
