<svg width="78" height="65" viewBox="0 0 78 65" fill="none" xmlns="http://www.w3.org/2000/svg">
<g clip-path="url(#clip0_3796_1320)">
<path d="M28.8673 29.2691C36.6921 29.2691 43.0353 22.9289 43.0353 15.1079C43.0353 7.28695 36.6921 0.946777 28.8673 0.946777C21.0425 0.946777 14.6992 7.28695 14.6992 15.1079C14.6992 22.9289 21.0425 29.2691 28.8673 29.2691Z" stroke="#30B6F9" stroke-width="1.5" stroke-linecap="round" stroke-linejoin="round"/>
<path d="M50.043 0.946655C57.872 0.946655 64.211 7.28258 64.211 15.1078C64.211 22.9331 57.872 29.269 50.043 29.269" stroke="#30B6F9" stroke-width="1.5" stroke-linecap="round" stroke-linejoin="round"/>
<path d="M0.945312 64.0533H57.2387V55.0795C57.2387 48.0999 51.5815 42.4456 44.5985 42.4456H13.5854C6.60243 42.4456 0.945312 48.0999 0.945312 55.0795V64.0533Z" stroke="#30B6F9" stroke-width="1.5" stroke-linecap="round" stroke-linejoin="round"/>
<path d="M64.2227 64.0536H77.0522V55.2691C77.0522 48.1885 71.3067 42.4458 64.2227 42.4458" stroke="#30B6F9" stroke-width="1.5" stroke-linecap="round" stroke-linejoin="round"/>
</g>
<defs>
<clipPath id="clip0_3796_1320">
<rect width="78" height="65" fill="white"/>
</clipPath>
</defs>
</svg>
