<svg width="66" height="65" viewBox="0 0 66 65" fill="none" xmlns="http://www.w3.org/2000/svg">
<g clip-path="url(#clip0_3796_1313)">
<path d="M50.2505 18.0738C50.2505 8.60782 42.6143 0.946655 33.2073 0.946655C23.8002 0.946655 16.1641 8.62044 16.1641 18.0738C16.1641 20.1185 16.5157 22.0748 17.1688 23.8923C17.4577 24.6748 17.7968 25.4321 18.1861 26.1641V26.1894C18.588 26.9088 19.0276 27.603 19.5049 28.2467L33.2073 49.8797L46.9096 28.2467C47.3995 27.5903 47.839 26.8962 48.2158 26.1768V26.1515H48.2284C48.6177 25.4195 48.9568 24.6622 49.2457 23.8797C49.8988 22.0622 50.2505 20.1059 50.2505 18.0612V18.0738Z" stroke="#30B6F9" stroke-width="1.5" stroke-linecap="round" stroke-linejoin="round"/>
<path d="M33.1348 26.77C37.9209 26.77 41.8008 22.871 41.8008 18.0613C41.8008 13.2516 37.9209 9.35254 33.1348 9.35254C28.3487 9.35254 24.4688 13.2516 24.4688 18.0613C24.4688 22.871 28.3487 26.77 33.1348 26.77Z" stroke="#30B6F9" stroke-width="1.5" stroke-linecap="round" stroke-linejoin="round"/>
<path d="M27.0525 40.1865L0.941406 49.8923L33.1313 64.0535L65.0575 49.8923L39.3483 40.1865" stroke="#30B6F9" stroke-width="1.5" stroke-linecap="round" stroke-linejoin="round"/>
</g>
<defs>
<clipPath id="clip0_3796_1313">
<rect width="66" height="65" fill="white"/>
</clipPath>
</defs>
</svg>
