<svg width="36" height="36" viewBox="0 0 36 36" fill="none" xmlns="http://www.w3.org/2000/svg">
<g clip-path="url(#clip0_3796_1293)">
<path d="M0.523438 19.9639H35.4733" stroke="#1E45A2" stroke-width="1.5" stroke-linecap="round" stroke-linejoin="round"/>
<path d="M3.13672 17.4272C3.74582 9.76587 10.1659 3.74023 18.0002 3.74023C25.8345 3.74023 32.1846 9.70295 32.8567 17.3084" stroke="#1E45A2" stroke-width="1.5" stroke-linecap="round" stroke-linejoin="round"/>
<path d="M3.13672 19.9639V21.2431C3.13672 22.3545 4.03987 23.2493 5.14605 23.2493H30.8403C31.9535 23.2493 32.8497 22.3476 32.8497 21.2431V19.9639" stroke="#1E45A2" stroke-width="1.5" stroke-linecap="round" stroke-linejoin="round"/>
<path d="M17.9922 35.4755L25.4204 29.9951L28.4239 33.1128" stroke="#1E45A2" stroke-width="1.5" stroke-linecap="round" stroke-linejoin="round"/>
<path d="M24.5114 30.6667C24.5114 30.6667 23.2302 27.4582 25.0155 25.8434C26.8008 24.2286 27.963 23.25 27.963 23.25" stroke="#1E45A2" stroke-width="1.5" stroke-linecap="round" stroke-linejoin="round"/>
<path d="M13.3516 23.25L14.9128 24.5782C14.9128 24.5782 17.3422 26.4236 19.2465 26.3117C21.1509 26.1999 22.3691 25.0395 22.3691 25.0395L24.0704 23.25" stroke="#1E45A2" stroke-width="1.5" stroke-linecap="round" stroke-linejoin="round"/>
<path d="M19.7073 34.2108C19.7073 34.2108 12.3071 27.6888 9.59766 23.25" stroke="#1E45A2" stroke-width="1.5" stroke-linecap="round" stroke-linejoin="round"/>
<path d="M16.1172 3.87975V1.50305C16.1172 0.964803 16.5583 0.524414 17.0974 0.524414H18.8967C19.4357 0.524414 19.8768 0.964803 19.8768 1.50305V3.73995" stroke="#1E45A2" stroke-width="1.5" stroke-linecap="round" stroke-linejoin="round"/>
</g>
<defs>
<clipPath id="clip0_3796_1293">
<rect width="36" height="36" fill="white"/>
</clipPath>
</defs>
</svg>
