<svg width="37" height="36" viewBox="0 0 37 36" fill="none" xmlns="http://www.w3.org/2000/svg">
<g clip-path="url(#clip0_3796_1267)">
<path d="M34.2534 33.2809H16.5344V35.4759H14.2656V26.4444C14.2656 25.291 15.2056 24.3613 16.3718 24.3613H34.3594C35.5256 24.3613 36.4656 25.291 36.4656 26.4444V35.4759H34.2463V33.2809H34.2534Z" stroke="#1E45A2" stroke-width="1.5" stroke-linecap="round" stroke-linejoin="round"/>
<path d="M16.4766 24.3613V18.853C16.4766 18.3077 16.9289 17.8604 17.4802 17.8604H33.2626C33.8139 17.8604 34.2662 18.3077 34.2662 18.853V24.3613" stroke="#1E45A2" stroke-width="1.5" stroke-linecap="round" stroke-linejoin="round"/>
<path d="M18.6641 24.3614V21.4953C18.6641 20.999 19.0669 20.6006 19.5687 20.6006H23.3288C23.8306 20.6006 24.2335 20.999 24.2335 21.4953V24.3614" stroke="#1E45A2" stroke-width="1.5" stroke-linecap="round" stroke-linejoin="round"/>
<path d="M26.457 24.3614V21.4953C26.457 20.999 26.8599 20.6006 27.3617 20.6006H31.1218C31.6236 20.6006 32.0265 20.999 32.0265 21.4953V24.3614" stroke="#1E45A2" stroke-width="1.5" stroke-linecap="round" stroke-linejoin="round"/>
<path d="M14.2656 29.2129H36.4727" stroke="#1E45A2" stroke-width="1.5" stroke-linecap="round" stroke-linejoin="round"/>
<path d="M0.53125 35.4756H9.23173" stroke="#1E45A2" stroke-width="1.5" stroke-linecap="round" stroke-linejoin="round"/>
<path d="M4.41797 35.4759V8.6681C4.41797 4.17335 8.10737 0.524414 12.659 0.524414C17.2107 0.524414 20.893 4.17335 20.893 8.6681V8.83587" stroke="#1E45A2" stroke-width="1.5" stroke-linecap="round" stroke-linejoin="round"/>
<path d="M20.9661 8.87109C23.4398 8.87109 25.4471 10.8563 25.4471 13.3029V14.4563H16.4922V13.3029C16.4922 10.8563 18.4994 8.87109 20.9732 8.87109H20.9661Z" stroke="#1E45A2" stroke-width="1.5" stroke-linecap="round" stroke-linejoin="round"/>
</g>
<defs>
<clipPath id="clip0_3796_1267">
<rect width="37" height="36" fill="white"/>
</clipPath>
</defs>
</svg>
