<svg width="45" height="36" viewBox="0 0 45 36" fill="none" xmlns="http://www.w3.org/2000/svg">
<g clip-path="url(#clip0_3796_1278)">
<path d="M9.04688 6.07422H42.9493C43.9634 6.07422 44.6866 7.03189 44.403 7.98956L39.34 24.955H16.4287C14.9041 24.955 13.6774 26.1713 13.6774 27.6672C13.6774 29.1701 14.9112 30.3795 16.4287 30.3795H39.7158" stroke="#1E45A2" stroke-width="1.5" stroke-linecap="round" stroke-linejoin="round"/>
<path d="M0.53125 0.524414H6.5374C6.98413 0.524414 7.38123 0.811016 7.50887 1.23742L14.834 25.4658" stroke="#1E45A2" stroke-width="1.5" stroke-linecap="round" stroke-linejoin="round"/>
<path d="M20.5226 35.4756C21.9481 35.4756 23.1037 34.3365 23.1037 32.9312C23.1037 31.5259 21.9481 30.3867 20.5226 30.3867C19.097 30.3867 17.9414 31.5259 17.9414 32.9312C17.9414 34.3365 19.097 35.4756 20.5226 35.4756Z" stroke="#1E45A2" stroke-width="1.5" stroke-linecap="round" stroke-linejoin="round"/>
<path d="M34.3351 35.4756C35.7606 35.4756 36.9162 34.3365 36.9162 32.9312C36.9162 31.5259 35.7606 30.3867 34.3351 30.3867C32.9095 30.3867 31.7539 31.5259 31.7539 32.9312C31.7539 34.3365 32.9095 35.4756 34.3351 35.4756Z" stroke="#1E45A2" stroke-width="1.5" stroke-linecap="round" stroke-linejoin="round"/>
</g>
<defs>
<clipPath id="clip0_3796_1278">
<rect width="45" height="36" fill="white"/>
</clipPath>
</defs>
</svg>
