<svg width="10" height="15" viewBox="0 0 10 15" fill="none" xmlns="http://www.w3.org/2000/svg">
<path d="M8.82648 0.108093H6.84382C4.61638 0.108093 3.17528 1.52543 3.17528 3.72496V5.39224H1.17732C1.00598 5.39224 0.865234 5.52457 0.865234 5.69218V8.1093C0.865234 8.27397 1.00598 8.40924 1.17732 8.40924H3.17222V14.5079C3.17222 14.6726 3.31297 14.8079 3.48431 14.8079H6.08502C6.25636 14.8079 6.39711 14.6726 6.39711 14.5079V8.40924H8.72857C8.89991 8.40924 9.04066 8.27397 9.04066 8.1093V5.69218C9.04066 5.61279 9.01006 5.53633 8.94886 5.48046C8.89073 5.42459 8.81118 5.39224 8.72857 5.39224H6.39405V3.97784C6.39405 3.29858 6.56233 2.9516 7.48329 2.9516H8.82036C8.9917 2.9516 9.13245 2.81633 9.13245 2.65166V0.410969C9.13245 0.246299 8.99476 0.111034 8.82036 0.111034L8.82648 0.108093Z" fill="white"/>
</svg>
