<svg width="16" height="15" viewBox="0 0 16 15" fill="none" xmlns="http://www.w3.org/2000/svg">
<g clip-path="url(#clip0_941_10808)">
<path d="M15.8111 9.12085V14.8108H12.461V9.50312C12.461 8.17106 11.9773 7.25949 10.7651 7.25949C9.83951 7.25949 9.29012 7.87112 9.04827 8.46511C8.9587 8.67683 8.9378 8.97088 8.9378 9.26788V14.8079H5.58775C5.58775 14.8079 5.63254 5.81862 5.58775 4.88647H8.9378V6.29205C8.9378 6.29205 8.92287 6.31263 8.9169 6.3244H8.9378V6.29205C9.38268 5.61867 10.1769 4.65417 11.9564 4.65417C14.1599 4.65417 15.8111 6.07151 15.8111 9.11791V9.12085ZM2.08543 0.108093C0.938885 0.108093 0.189453 0.849109 0.189453 1.82243C0.189453 2.79575 0.917984 3.53676 2.04064 3.53676H2.06154C3.22898 3.53676 3.95453 2.77516 3.95453 1.82243C3.93363 0.849109 3.22898 0.108093 2.08244 0.108093H2.08543ZM0.389501 14.8108H3.73656V4.88941H0.389501V14.8108Z" fill="white"/>
</g>
<defs>
<clipPath id="clip0_941_10808">
<rect width="15.6216" height="14.7027" fill="white" transform="translate(0.189453 0.108093)"/>
</clipPath>
</defs>
</svg>
