<?xml version="1.0" encoding="UTF-8"?>
<svg id="Layer_1" xmlns="http://www.w3.org/2000/svg" version="1.1" viewBox="0 0 1920 1080">
  <!-- Generator: Adobe Illustrator 29.5.1, SVG Export Plug-In . SVG Version: 2.1.0 Build 141)  -->
  <defs>
    <style>
      .st0 {
        fill: #fff;
      }
    </style>
  </defs>
  <path class="st0" d="M.4,0v1080h1919.3V0H.4ZM1182.2,567.7v7.7c0,0-.1,3.8-.1,3.8v3.7c-.1,0-.3,3.7-.3,3.7v3.5c-.1,0-.3,2.2-.3,2.2l-.2,2.2-.3,2-.4,1.9-.2,1-.2.9-.3.9-.3.9-.3.8-.3.8-.4.8-.4.8-.4.7-.4.7-.4.7-.4.6-.4.7-.5.6-.4.6-.5.6-.5.5-.5.5-.5.5-.5.4-.5.5-.6.4-.5.4-.6.4-.9.3-.9.4-.9.3-1,.3-1,.2h-1.1c0,.1-1.3.3-1.3.3h-2.7s-1.6-.2-1.6-.2l-1.7-.3-2-.4-2.2-.6-2.4-.7-2.7-.9-2.9-1-118.7-46-.7-.2-.7-.2h-.6c0-.1-.6-.2-.6-.2h-.6s-.5,0-.5,0h-.5s-.4.2-.4.2h-.4c0,.1-.4.4-.4.4l-.3.2-.3.3-.2.3-.2.4-.2.3-.2.5-.2.8-.2.9v.9c-.1,0-.2,1-.2,1v1.8c0,0-.1,1.6-.1,1.6v96.2c0,0-42-26.1-42-26.1l-.9-.5-.9-.6-.8-.6-.9-.7-.8-.7-.8-.8-.4-.4-.4-.5-.4-.5-.4-.5-.3-.5-.3-.5-.3-.6-.3-.7-.3-.6-.2-.7-.2-.7-.2-.8-.2-.8v-.9c-.1,0-.3-.9-.3-.9v-1c0,0-.2-1-.2-1v-1s0-1.1,0-1.1v-107.3s0-2.2,0-2.2l.2-2.1.2-2,.3-1.9.4-1.7.4-1.6.5-1.5.6-1.3.7-1.3.7-1.1.8-1.1.9-.9.9-.8,1.1-.6,1.1-.6,1.1-.5,1.2-.4,1.2-.3h1.3c0-.1,1.5-.2,1.5-.2h3c0,0,1.6.3,1.6.3l1.6.3,1.7.3,1.8.5,1.9.5,1.9.6,2,.6,2.1.7,2.1.8,2.2.8,118.8,52,.8.2.7.2h.6s.7,0,.7,0l.6-.2.5-.2.5-.3.4-.3.4-.3.3-.4.3-.4.2-.5.2-.4v-.5c.1,0,.3-.5.3-.5v-.4s.2-1.7.2-1.7v-1.4s0-1,0-1v-3.4c0,0,0-1.3,0-1.3v-.6s0-.6,0-.6v-.5c0,0-.2-.6-.2-.6v-.6c-.1,0-.3-.5-.3-.5v-.5c-.1,0-.3-.5-.3-.5l-.2-.5-.2-.5-.3-.4-.3-.5-.3-.4-.4-.4-.3-.4-.4-.4-.5-.4-.6-.4-.6-.5-.7-.4-1.5-.9-1.6-.9-1.7-.9-1.6-.8-1.5-.7-1.3-.6-154.4-84.8h0s-163.6,92.5-163.6,92.5l-1.5.8-1.4.8-.6.4-.6.4-.6.4-.6.4-.5.4-.5.4-.4.5-.4.5-.3.5-.2.5v.6c-.1,0-.2.7-.2.7v5s0,1.1,0,1.1v4.6c0,0,.2.4.2.4v.3c.1,0,.3.3.3.3l.2.3.3.3.3.3.4.2.4.2h.5c0,0,.6,0,.6,0h.7s.7-.1.7-.1l.8-.2.9-.3,120.1-54.5,1-.5,1.1-.5,1.3-.4,1.3-.4,1.4-.4,1.5-.3,1.5-.3,1.6-.2,1.5-.2h1.6c0,0,1.6-.1,1.6-.1h3.2c0,.1,1.5.4,1.5.4l1.6.3,1.6.4,1.5.6,1.5.7,1.4.8,1.4,1,1.3,1.1,1.2,1.3,1.1,1.5,1,1.6.9,1.8.8,2,.7,2.2.6,2.5.4,2.6.3,2.9v3.2c0,0,0,3.3,0,3.3v72.2s-.2,2-.2,2v2.2c0,0-.2,2.3-.2,2.3v2.5c0,0-.2,1.2-.2,1.2v1.2c-.1,0-.3,1.3-.3,1.3l-.2,1.3-.3,1.3-.3,1.3-.3,1.3-.4,1.3-.5,1.3-.6,1.3-.6,1.3-.8,1.3-.8,1.2-.9,1.2-1.1,1.3-1.2,1.1-1.3,1.2-1.4,1.1-1.6,1.1-1.7,1.1-1.8,1.1-2,1-2.1.9-2.2,1-192.3,59.2v-54.7c-.1,0,150.4-53.5,150.4-53.5l1.3-.5,1.2-.4,1.2-.5,1.2-.5,1.2-.5,1.2-.5,1.2-.5,1.2-.5.9-.4.9-.4.4-.2.4-.3.4-.3.3-.3.3-.3.3-.4.2-.3.2-.4v-.4c.1,0,.3-.5.3-.5v-.5s0-.6,0-.6v-10.6s0-.9,0-.9v-.9s-.1-.7-.1-.7l-.2-.7v-.3c-.1,0-.3-.3-.3-.3l-.2-.3-.2-.2-.2-.3-.2-.2-.2-.2h-.3c0-.1-.3-.3-.3-.3h-.4c0,0-.3-.2-.3-.2h-.3s-.4,0-.4,0h-.4s-.4,0-.4,0h-.4s-.9.2-.9.2l-1.1.3-1.1.4-1.2.5-123.9,48.6-2,.6-2,.6-1.9.6-1.8.4-1.7.4-1.7.2-1.6.2h-1.6c0,.1-1.4.2-1.4.2h-1.4s-1.3,0-1.3,0h-1.2c0-.1-1.1-.3-1.1-.3l-1.1-.2-.9-.2-.9-.3-.6-.2-.6-.2-.5-.3-.5-.4-.5-.4-.4-.4-.5-.5-.4-.5-.4-.5-.4-.6-.3-.6-.3-.6-.3-.6-.2-.7-.2-.7-.2-.8-.2-.8-.2-.8v-.9c-.1,0-.3-.9-.3-.9l-.2-1.9-.2-2.1v-2.2c0,0-.2-2.3-.2-2.3v-5.1s0-2.8,0-2.8v-8.9s0-3.1,0-3.1v-9.5s0-3.2,0-3.2v-22.6s0-1.7,0-1.7v-1.6s.1-1.7.1-1.7v-1.6c.1,0,.3-1.7.3-1.7l.2-1.6.2-1.6.3-1.6.3-1.6.4-1.6.4-1.6.5-1.5.5-1.5.5-1.5.6-1.5.6-1.4.6-1.2.7-1.2.8-1.1.8-1.1.9-1.1.9-1.1,1-1.1,1-1,1-1,1.1-1,1.1-.9,1.1-.9,2.3-1.8,2.4-1.7,1.6-1.1,1.6-1.1,1.6-1.1,1.6-1.1,1.6-1,1.5-1.1,1.5-1.1,1.5-1.1,188.5-106.6v1.9s0-1.9,0-1.9l12.2,6.6,12.5,6.8,12.8,6.9,13,7.1,13.2,7.1,13.2,7.1,13.4,7.2,13.3,7.2,13.2,7.1,13,7,12.8,7,12.6,6.8,12.2,6.6,11.8,6.4,11.3,6.2,10.7,5.9,1.1.5,1,.5,1,.6,1,.7.9.7,1,.7.9.8.9.8.8.9.8.9.9.9.7,1,.8,1.1.7,1,.7,1.1.7,1.1.6,1.2.6,1.2.6,1.2.5,1.3.5,1.3.5,1.3.4,1.4.4,1.4.4,1.5.3,1.5.3,1.6.2,1.5.2,1.6.2,1.6v1.7c.1,0,.2,1.7.2,1.7v3.6c.1,0,.2,3.7.2,3.7v3.7c0,0,.2,3.8.2,3.8v3.8s.1,3.9.1,3.9v3.9c0,0,0,3.9,0,3.9v3.9s0,3.9,0,3.9Z"/>
</svg>