<svg id="eyEK5ntNj2g1" xmlns="http://www.w3.org/2000/svg" xmlns:xlink="http://www.w3.org/1999/xlink" viewBox="0 0 1920 1080" shape-rendering="geometricPrecision" text-rendering="geometricPrecision" project-id="cdb2fe4015b940d88f31fd8591c99dbe" export-id="724f478bdef044429f9c6f4db37ca9f6" cached="true">
<style><![CDATA[
#eyEK5ntNj2g2_to {animation: eyEK5ntNj2g2_to__to 3000ms linear infinite normal forwards}@keyframes eyEK5ntNj2g2_to__to { 0% {transform: translate(960.051158px,540px)} 26.666667% {transform: translate(960.051158px,540px)} 53.333333% {transform: translate(960.051158px,1260px)} 100% {transform: translate(960.051158px,1260px)}} #eyEK5ntNj2g4 {animation: eyEK5ntNj2g4_c_o 3000ms linear infinite normal forwards}@keyframes eyEK5ntNj2g4_c_o { 0% {opacity: 1} 33.333333% {opacity: 1} 43.333333% {opacity: 0} 100% {opacity: 0}} #eyEK5ntNj2g5 {animation: eyEK5ntNj2g5_s_do 3000ms linear infinite normal forwards}@keyframes eyEK5ntNj2g5_s_do { 0% {stroke-dashoffset: -426.79} 33.333333% {stroke-dashoffset: 0} 100% {stroke-dashoffset: 0}} #eyEK5ntNj2g6 {animation: eyEK5ntNj2g6_s_do 3000ms linear infinite normal forwards}@keyframes eyEK5ntNj2g6_s_do { 0% {stroke-dashoffset: 528.08} 33.333333% {stroke-dashoffset: 0} 100% {stroke-dashoffset: 0}}
]]></style>
<g id="eyEK5ntNj2g2_to" transform="translate(960.051158,540)"><rect width="3357.108055" height="1948.829676" rx="0" ry="0" transform="scale(0.571713,0.306642) translate(-1678.554027,-974.414838)" fill="#fff" stroke-width="0"/></g><path d="M0.4,0v1080h1919.3v-1080L0.4,0ZM1182.2,567.7v7.7c0,0-.1,3.8-.1,3.8v3.7c-.1,0-.3,3.7-.3,3.7v3.5c-.1,0-.3,2.2-.3,2.2l-.2,2.2-.3,2-.4,1.9-.2,1-.2.9-.3.9-.3.9-.3.8-.3.8-.4.8-.4.8-.4.7-.4.7-.4.7-.4.6-.4.7-.5.6-.4.6-.5.6-.5.5-.5.5-.5.5-.5.4-.5.5-.6.4-.5.4-.6.4-.9.3-.9.4-.9.3-1,.3-1,.2h-1.1c0,.1-1.3.3-1.3.3h-2.7c0,0-1.6-.2-1.6-.2l-1.7-.3-2-.4-2.2-.6-2.4-.7-2.7-.9-2.9-1-118.7-46-.7-.2-.7-.2h-.6c0-.1-.6-.2-.6-.2h-.6c0,0-.5,0-.5,0h-.5c0,0-.4.2-.4.2h-.4c0,.1-.4.4-.4.4l-.3.2-.3.3-.2.3-.2.4-.2.3-.2.5-.2.8-.2.9v.9c-.1,0-.2,1-.2,1v1.8c0,0-.1,1.6-.1,1.6v96.2c0,0-42-26.1-42-26.1l-.9-.5-.9-.6-.8-.6-.9-.7-.8-.7-.8-.8-.4-.4-.4-.5-.4-.5-.4-.5-.3-.5-.3-.5-.3-.6-.3-.7-.3-.6-.2-.7-.2-.7-.2-.8-.2-.8v-.9c-.1,0-.3-.9-.3-.9v-1c0,0-.2-1-.2-1v-1c0,0,0-1.1,0-1.1v-107.3c0,0,0-2.2,0-2.2l.2-2.1.2-2l.3-1.9.4-1.7.4-1.6.5-1.5.6-1.3.7-1.3.7-1.1.8-1.1.9-.9.9-.8l1.1-.6l1.1-.6l1.1-.5l1.2-.4l1.2-.3h1.3c0-.1,1.5-.2,1.5-.2h3c0,0,1.6.3,1.6.3l1.6.3l1.7.3l1.8.5l1.9.5l1.9.6l2,.6l2.1.7l2.1.8l2.2.8l118.8,52l.8.2.7.2h.6c0,0,.7,0,.7,0l.6-.2.5-.2.5-.3.4-.3.4-.3.3-.4.3-.4.2-.5.2-.4v-.5c.1,0,.3-.5.3-.5v-.4c0,0,.2-1.7.2-1.7v-1.4c0,0,0-1,0-1v-3.4c0,0,0-1.3,0-1.3v-.6c0,0,0-.6,0-.6v-.5c0,0-.2-.6-.2-.6v-.6c-.1,0-.3-.5-.3-.5v-.5c-.1,0-.3-.5-.3-.5l-.2-.5-.2-.5-.3-.4-.3-.5-.3-.4-.4-.4-.3-.4-.4-.4-.5-.4-.6-.4-.6-.5-.7-.4-1.5-.9-1.6-.9-1.7-.9-1.6-.8-1.5-.7-1.3-.6-154.4-84.8v0c0,0-163.6,92.5-163.6,92.5l-1.5.8-1.4.8-.6.4-.6.4-.6.4-.6.4-.5.4-.5.4-.4.5-.4.5-.3.5-.2.5v.6c-.1,0-.2.7-.2.7v5c0,0,0,1.1,0,1.1v4.6c0,0,.2.4.2.4v.3c.1,0,.3.3.3.3l.2.3.3.3.3.3.4.2.4.2h.5c0,0,.6,0,.6,0h.7c0,0,.7-.1.7-.1l.8-.2.9-.3L915.9,501l1-.5l1.1-.5l1.3-.4l1.3-.4l1.4-.4l1.5-.3l1.5-.3l1.6-.2l1.5-.2h1.6c0,0,1.6-.1,1.6-.1h3.2c0,.1,1.5.4,1.5.4l1.6.3l1.6.4l1.5.6l1.5.7l1.4.8l1.4,1l1.3,1.1l1.2,1.3l1.1,1.5l1,1.6.9,1.8.8,2l.7,2.2.6,2.5.4,2.6.3,2.9v3.2c0,0,0,3.3,0,3.3v72.2c0,0-.2,2-.2,2v2.2c0,0-.2,2.3-.2,2.3v2.5c0,0-.2,1.2-.2,1.2v1.2c-.1,0-.3,1.3-.3,1.3l-.2,1.3-.3,1.3-.3,1.3-.3,1.3-.4,1.3-.5,1.3-.6,1.3-.6,1.3-.8,1.3-.8,1.2-.9,1.2-1.1,1.3-1.2,1.1-1.3,1.2-1.4,1.1-1.6,1.1-1.7,1.1-1.8,1.1-2,1-2.1.9-2.2,1L738,697v-54.7c-.1,0,150.4-53.5,150.4-53.5l1.3-.5l1.2-.4l1.2-.5l1.2-.5l1.2-.5l1.2-.5l1.2-.5l1.2-.5.9-.4.9-.4.4-.2.4-.3.4-.3.3-.3.3-.3.3-.4.2-.3.2-.4v-.4c.1,0,.3-.5.3-.5v-.5c0,0,0-.6,0-.6v-10.6c0,0,0-.9,0-.9v-.9c0,0-.1-.7-.1-.7l-.2-.7v-.3c-.1,0-.3-.3-.3-.3l-.2-.3-.2-.2-.2-.3-.2-.2-.2-.2h-.3c0-.1-.3-.3-.3-.3h-.4c0,0-.3-.2-.3-.2h-.3c0,0-.4,0-.4,0h-.4c0,0-.4,0-.4,0h-.4c0,0-.9.2-.9.2l-1.1.3-1.1.4-1.2.5-123.9,48.6-2,.6-2,.6-1.9.6-1.8.4-1.7.4-1.7.2-1.6.2h-1.6c0,.1-1.4.2-1.4.2h-1.4c0,0-1.3,0-1.3,0h-1.2c0-.1-1.1-.3-1.1-.3l-1.1-.2-.9-.2-.9-.3-.6-.2-.6-.2-.5-.3-.5-.4-.5-.4-.4-.4-.5-.5-.4-.5-.4-.5-.4-.6-.3-.6-.3-.6-.3-.6-.2-.7-.2-.7-.2-.8-.2-.8-.2-.8v-.9c-.1,0-.3-.9-.3-.9l-.2-1.9-.2-2.1v-2.2c0,0-.2-2.3-.2-2.3v-5.1c0,0,0-2.8,0-2.8v-8.9c0,0,0-3.1,0-3.1v-9.5c0,0,0-3.2,0-3.2v-22.6c0,0,0-1.7,0-1.7v-1.6c0,0,.1-1.7.1-1.7v-1.6c.1,0,.3-1.7.3-1.7l.2-1.6.2-1.6.3-1.6.3-1.6.4-1.6.4-1.6.5-1.5.5-1.5.5-1.5.6-1.5.6-1.4.6-1.2.7-1.2.8-1.1.8-1.1.9-1.1.9-1.1l1-1.1l1-1l1-1l1.1-1l1.1-.9l1.1-.9l2.3-1.8l2.4-1.7l1.6-1.1l1.6-1.1l1.6-1.1l1.6-1.1l1.6-1l1.5-1.1l1.5-1.1l1.5-1.1L960.1,383.8v1.9c0,0,0-1.9,0-1.9l12.2,6.6l12.5,6.8l12.8,6.9l13,7.1l13.2,7.1l13.2,7.1l13.4,7.2l13.3,7.2l13.2,7.1l13,7l12.8,7l12.6,6.8l12.2,6.6l11.8,6.4l11.3,6.2l10.7,5.9l1.1.5l1,.5l1,.6l1,.7.9.7l1,.7.9.8.9.8.8.9.8.9.9.9.7,1l.8,1.1.7,1l.7,1.1.7,1.1.6,1.2.6,1.2.6,1.2.5,1.3.5,1.3.5,1.3.4,1.4.4,1.4.4,1.5.3,1.5.3,1.6.2,1.5.2,1.6.2,1.6v1.7c.1,0,.2,1.7.2,1.7v3.6c.1,0,.2,3.7.2,3.7v3.7c0,0,.2,3.8.2,3.8v3.8c0,0,.1,3.9.1,3.9v3.9c0,0,0,3.9,0,3.9v3.9c0,0,0,3.9,0,3.9l.6.5Z" transform="translate(-.05 0)" fill="#fff"/><g id="eyEK5ntNj2g4" transform="matrix(2.966978 0 0 2.966986 735.993161 381.562944)"><polygon id="eyEK5ntNj2g5" points="75.6,0.5 75.6,20.3 128.1,49 128.5,49.3 129,49.5 129.6,49.8 130.1,50.1 130.7,50.4 131.2,50.7 131.4,50.8 131.6,51 131.8,51.1 132,51.3 132.1,51.4 132.2,51.5 132.4,51.6 132.5,51.8 132.6,51.9 132.7,52.1 132.7,52.2 132.8,52.4 132.9,52.5 132.9,52.7 133,52.9 133,53.1 133,53.3 133.1,53.5 133.1,53.7 133.1,53.9 133.1,54.3 133.1,54.6 133.1,54.9 133.1,55.2 133.1,55.5 133.1,55.8 133.1,56.3 133,56.8 133,57 133,57.1 132.9,57.3 132.9,57.4 132.8,57.6 132.7,57.7 132.6,57.9 132.5,58 132.3,58.1 132.2,58.2 132,58.2 131.8,58.3 131.6,58.3 131.4,58.3 131.1,58.2 130.9,58.2 90.7,40.6 90,40.3 89.3,40 88.6,39.8 87.9,39.6 87.2,39.4 86.6,39.2 86,39.1 85.4,38.9 84.8,38.9 84.3,38.8 83.8,38.8 83.3,38.8 82.8,38.8 82.3,38.8 81.9,38.9 81.5,39.1 81.1,39.2 80.8,39.4 80.4,39.6 80.1,39.9 79.8,40.2 79.5,40.5 79.3,40.9 79.1,41.4 78.9,41.8 78.7,42.3 78.5,42.9 78.4,43.4 78.3,44.1 78.2,44.7 78.2,45.4 78.1,46.2 78.2,80.4 78.2,82.1 78.2,82.5 78.2,82.9 78.2,83.2 78.2,83.5 78.2,83.9 78.3,84.2 78.3,84.5 78.4,84.7 78.5,85 78.5,85.3 78.6,85.5 78.7,85.7 78.8,86 78.9,86.2 79,86.3 79.1,86.5 79.2,86.7 79.4,86.9 79.5,87 79.6,87.2 79.9,87.5 80.1,87.7 80.4,87.9 80.7,88.2 81,88.4 81.3,88.5 95.5,97.4 95.5,64.8 95.5,64.3 95.6,63.7 95.6,63.4 95.6,63.1 95.7,62.8 95.8,62.5 95.8,62.4 95.9,62.3 96,62.1 96,62 96.1,62 96.2,61.9 96.3,61.8 96.5,61.8 96.6,61.7 96.8,61.7 96.9,61.7 97.1,61.7 97.3,61.7 97.5,61.8 97.8,61.8 98,61.9 138.1,77.4 139.1,77.8 140,78.1 140.8,78.3 141.5,78.5 142.2,78.7 142.8,78.8 143.3,78.8 143.8,78.8 144.3,78.8 144.7,78.8 145.1,78.7 145.4,78.7 145.7,78.6 146,78.5 146.3,78.4 146.6,78.2 146.8,78.1 147,78 147.2,77.9 147.4,77.7 147.5,77.6 147.7,77.4 147.9,77.2 148,77.1 148.2,76.9 148.3,76.7 148.5,76.5 148.6,76.2 148.8,76 148.9,75.8 149,75.5 149.1,75.3 149.3,75 149.4,74.8 149.5,74.5 149.6,74.2 149.7,73.9 149.8,73.6 149.8,73.3 149.9,73 150.1,72.3 150.2,71.7 150.2,70.9 150.3,70.2 150.3,69 150.4,67.8 150.4,66.5 150.5,65.2 150.5,63.9 150.5,62.6 150.5,61.3 150.5,60 150.5,58.6 150.5,57.3 150.4,56 150.4,54.7 150.4,53.4 150.4,52.2 150.3,50.9 150.3,49.7 150.3,49.2 150.2,48.6 150.2,48 150.1,47.5 150,47 149.9,46.4 149.8,45.9 149.7,45.4 149.6,45 149.4,44.5 149.3,44 149.1,43.6 148.9,43.1 148.7,42.7 148.5,42.3 148.3,41.9 148.1,41.5 147.8,41.1 147.6,40.8 147.3,40.4 147.1,40.1 146.8,39.8 146.5,39.5 146.2,39.2 145.9,38.9 145.6,38.6 145.3,38.4 145,38.2 144.7,37.9 144.3,37.7 144,37.5 143.6,37.4 140,35.4 136.2,33.3 132.2,31.1 128.1,28.9 123.8,26.6 119.5,24.2 115.1,21.8 110.6,19.4 106.2,17 101.6,14.6 97.2,12.1 92.7,9.7 88.3,7.3 84,5 79.8,2.7 75.6,0.5" fill="none" stroke="#0d88c4" stroke-linecap="round" stroke-linejoin="round" stroke-dashoffset="-426.79" stroke-dasharray="426.79"/><polygon id="eyEK5ntNj2g6" points="75.6,0.5 11.9,36.5 11.4,36.9 10.9,37.2 10.4,37.6 9.9,37.9 9.4,38.3 8.8,38.7 8.3,39 7.7,39.4 6.9,40 6.1,40.6 5.7,40.9 5.3,41.2 5,41.6 4.6,41.9 4.3,42.2 4,42.6 3.6,42.9 3.4,43.3 3.1,43.7 2.8,44.1 2.6,44.5 2.4,44.9 2.1,45.4 1.9,45.9 1.7,46.4 1.5,46.9 1.4,47.4 1.3,47.9 1.1,48.5 1,49 0.9,49.6 0.9,50.1 0.8,50.7 0.8,51.2 0.7,51.8 0.7,52.3 0.7,52.9 0.7,53.5 0.7,54.5 0.7,55.6 0.7,56.7 0.7,57.8 0.7,58.9 0.7,60 0.7,61.1 0.7,62.2 0.7,63.3 0.7,64.3 0.7,65.4 0.7,66.4 0.7,67.4 0.7,68.4 0.7,69.4 0.7,70.4 0.7,71.3 0.7,72.1 0.7,72.9 0.8,73.6 0.8,74.3 0.9,75 0.9,75.3 1,75.6 1.1,75.8 1.1,76.1 1.2,76.4 1.3,76.6 1.3,76.9 1.4,77.1 1.5,77.3 1.6,77.5 1.8,77.7 1.9,77.8 2,78 2.2,78.1 2.3,78.3 2.5,78.4 2.7,78.5 2.9,78.6 3.1,78.7 3.3,78.8 3.6,78.9 3.9,79 4.3,79 4.6,79.1 5.1,79.1 5.5,79.1 5.9,79.1 6.4,79.1 6.9,79.1 7.5,79 8.1,78.9 8.7,78.8 9.3,78.7 9.9,78.5 10.6,78.3 11.3,78.1 53.1,61.7 53.6,61.5 53.9,61.4 54.3,61.3 54.6,61.2 54.7,61.2 54.9,61.2 55,61.2 55.1,61.2 55.3,61.2 55.4,61.3 55.5,61.3 55.6,61.3 55.7,61.4 55.8,61.4 55.8,61.5 55.9,61.6 55.9,61.7 56,61.8 56.1,61.9 56.1,62 56.2,62.2 56.2,62.4 56.2,62.8 56.2,63.1 56.2,66.6 56.2,66.8 56.2,67 56.1,67.2 56.1,67.3 56,67.4 55.9,67.5 55.8,67.7 55.8,67.8 55.6,67.9 55.5,68 55.4,68.1 55.2,68.1 54.9,68.3 54.6,68.4 54.2,68.6 53.8,68.7 53.4,68.9 53,69.1 52.6,69.2 52.2,69.4 51.8,69.5 51.4,69.7 0.5,87.8 0.5,106.3 65.5,86.3 66.3,85.9 67,85.6 67.7,85.3 68.3,84.9 68.9,84.6 69.4,84.2 69.9,83.8 70.3,83.4 70.7,83 71,82.6 71.4,82.2 71.6,81.8 71.9,81.3 72.1,80.9 72.3,80.4 72.5,80 72.6,79.5 72.7,79.1 72.8,78.7 72.9,78.2 73,77.8 73.1,77.3 73.1,76.9 73.1,76.5 73.2,75.7 73.2,74.9 73.2,74.1 73.3,73.4 73.3,49.1 73.3,47.9 73.3,46.9 73.2,45.9 73,45 72.8,44.2 72.6,43.4 72.3,42.7 72,42.1 71.7,41.6 71.3,41 70.9,40.6 70.5,40.2 70,39.9 69.5,39.6 69,39.4 68.5,39.2 68,39 67.4,38.9 66.9,38.8 66.4,38.8 65.8,38.8 65.3,38.8 64.7,38.8 64.2,38.9 63.7,39 63.2,39.1 62.7,39.2 62.3,39.4 61.8,39.5 61.4,39.6 61,39.8 60.7,39.9 20.1,58.4 19.8,58.4 19.5,58.5 19.3,58.5 19.1,58.6 18.9,58.6 18.7,58.5 18.6,58.5 18.4,58.4 18.3,58.3 18.2,58.2 18.2,58.1 18.1,58 18.1,57.9 18,57.8 18,57.7 18,57.5 18,57.1 18,56.6 18,56.2 18,55.8 18,55.4 18,55 18,54.6 18,54.1 18,53.9 18.1,53.7 18.2,53.5 18.2,53.3 18.4,53.1 18.5,53 18.6,52.8 18.8,52.7 19,52.6 19.2,52.4 19.4,52.3 19.7,52.2 20.1,51.9 20.6,51.6 75.9,20.4 75.6,0.5" fill="none" stroke="#264a9b" stroke-linecap="round" stroke-linejoin="round" stroke-dashoffset="528.08" stroke-dasharray="528.08"/></g></svg>
