<?xml version="1.0" encoding="UTF-8"?>
<svg id="Layer_1" xmlns="http://www.w3.org/2000/svg" version="1.1" viewBox="0 0 1920 1080">
  <!-- Generator: Adobe Illustrator 29.5.1, SVG Export Plug-In . SVG Version: 2.1.0 Build 141)  -->
  <defs>
    <style>
      .st0 {
        fill: #fff;
      }
    </style>
  </defs>
  <path class="st0" d="M0,0v1080h1920V0H0ZM1220.2,572.1v9.1c-.1,0-.2,4.4-.2,4.4l-.2,4.3-.2,4.3-.2,4.1-.2,2.6-.3,2.5-.4,2.4-.5,2.2-.3,1.1-.3,1.1-.3,1-.3,1.1-.3,1-.4,1-.4.9-.4.9-.4.9-.4.9-.4.8-.5.7-.5.8-.5.7-.5.7-.6.7-.5.6-.6.6-.5.6-.6.5-.6.5-.7.4-.6.4-.7.4-1,.4-1,.4-1.1.3-1.1.3-1.2.3-1.3.2-1.5.2h-3.2c0,0-1.9-.3-1.9-.3l-2-.3-2.4-.5-2.5-.8-2.8-.8-3.1-1-3.4-1.2-139.2-53.9-.9-.3-.8-.3-.7-.2h-.7c0,0-.7-.1-.7-.1h-.5c0,0-.6.1-.6.1l-.5.2-.4.2-.4.3-.3.3-.3.3-.3.3-.3.4-.2.4-.2.5-.3.9-.2,1-.2,1.1v1.1c0,0-.2,2.1-.2,2.1v1.8s0,112.8,0,112.8l-49.3-30.6-1.1-.6-1-.7-1-.7-1.1-.8-.9-.9-.9-1-.4-.5-.4-.6-.4-.6-.4-.6-.4-.6-.4-.6-.3-.7-.3-.8-.3-.8-.3-.9-.2-.9-.3-1-.2-1-.2-1-.2-1v-1.2c-.1,0-.2-1.2-.2-1.2v-1.2c0,0-.1-1.3-.1-1.3v-125.8c0,0,0-2.6,0-2.6l.2-2.5.3-2.4.3-2.2.5-2,.5-1.9.6-1.7.7-1.6.8-1.5.9-1.3.9-1.2,1-1,1.1-.9,1.2-.8,1.2-.7,1.3-.6,1.5-.4,1.4-.3,1.6-.2h1.7c0-.1,1.7-.1,1.7-.1h1.8c0,.1,1.9.3,1.9.3l1.9.3,2,.4,2.2.5,2.2.6,2.3.7,2.4.7,2.5.9,2.5,1,2.6,1,139.3,61,.9.3.9.2h.7c0,0,.8,0,.8,0l.6-.2.6-.2.6-.3.5-.4.4-.4.3-.5.3-.5.3-.5.2-.5.2-.6.2-.5v-.5c0,0,.2-2,.2-2v-1.6s.1-1.2.1-1.2v-4c0,0,0-1.5,0-1.5v-.7s-.1-.7-.1-.7v-.6c-.1,0-.2-.6-.2-.6l-.2-.7-.2-.6v-.6c-.1,0-.4-.6-.4-.6l-.3-.5-.3-.5-.3-.5-.3-.5-.3-.5-.4-.5-.4-.4-.5-.4-.6-.5-.7-.5-.7-.5-.8-.5-1.7-1-1.9-1.1-1.9-1-1.9-1-1.8-.9-1.5-.7-181.1-99.4h0s-191.9,108.4-191.9,108.4l-1.7.9-1.6.9-.7.4-.7.4-.7.5-.7.4-.6.5-.5.5-.4.6-.4.6-.3.6-.2.6-.2.7v.9c-.1,0-.1,1.6-.1,1.6v4.3c0,0,0,1.3,0,1.3v5.4c.1,0,.2.4.2.4l.2.4.2.4.3.4.3.3.4.3.5.2.5.2h.6c0,.1.7.1.7.1h.8c0,0,.8-.2.8-.2l.9-.2,1-.3,140.8-63.9,1.2-.5,1.3-.5,1.5-.5,1.5-.5,1.6-.5,1.7-.4,1.7-.4,1.8-.3,1.8-.3h1.9c0-.1,1.9-.2,1.9-.2h1.9l1.9.2,1.8.3,1.9.4,1.8.5,1.8.7,1.8.8,1.6,1,1.7,1.1,1.5,1.3,1.4,1.5,1.3,1.8,1.2,1.9,1.1,2.1,1,2.4.8,2.6.7,2.9.5,3.1.3,3.4v3.7c.1,0,0,3.9,0,3.9v84.6s-.2,2.4-.2,2.4v2.6c-.1,0-.2,2.7-.2,2.7v2.9c0,0-.2,1.4-.2,1.4l-.2,1.4-.2,1.6-.3,1.5-.3,1.6-.4,1.5-.4,1.6-.5,1.6-.6,1.5-.7,1.6-.8,1.5-.9,1.6-1,1.5-1.1,1.4-1.2,1.5-1.4,1.3-1.5,1.4-1.6,1.3-1.8,1.3-2,1.3-2.1,1.2-2.3,1.1-2.5,1.1-2.6,1.1-225.5,69.4-.2-64.2,176.5-62.8,1.5-.5,1.4-.5,1.4-.5,1.4-.5,1.4-.6,1.4-.5,1.4-.6,1.4-.6,1.1-.5,1-.5.5-.3.5-.3.4-.4.4-.3.3-.3.3-.4.3-.4.2-.5.2-.5.2-.5v-.6c0,0,.1-.6.1-.6v-12.4s0-1.1,0-1.1v-1.1s-.2-.9-.2-.9l-.2-.8-.2-.4-.2-.3-.2-.3-.2-.3-.2-.3-.3-.2-.3-.2-.3-.2-.3-.2h-.4c0-.1-.4-.2-.4-.2h-.4c0,0-.4,0-.4,0h-.5c0,0-.5,0-.5,0h-.5c0,0-1.1.2-1.1.2l-1.3.3-1.3.4-1.4.6-145.3,57-2.4.8-2.4.7-2.2.7-2.1.4-2,.4-2,.3-1.9.2-1.8.2h-1.7s-1.6.1-1.6.1h-1.5c0,0-1.4-.2-1.4-.2l-1.3-.2-1.3-.2-1.1-.3-1-.3-.7-.3-.7-.3-.6-.4-.6-.4-.6-.4-.5-.5-.5-.5-.4-.5-.5-.6-.4-.6-.4-.7-.4-.8-.3-.7-.3-.8-.3-.9-.2-.9-.2-.9-.2-1-.2-1-.2-1.1-.3-2.2-.2-2.4v-2.6c-.1,0-.2-2.7-.2-2.7v-6c0,0,0-3.3,0-3.3v-10.5c0,0,0-3.6,0-3.6v-11.1c0,0,0-3.7,0-3.7v-26.5c0,0,0-2,0-2v-1.9c0,0,.2-2,.2-2l.2-1.9.2-2,.2-1.9.3-1.9.3-1.9.4-1.9.4-1.8.4-1.9.5-1.8.6-1.8.6-1.7.8-1.8.7-1.6.8-1.4.8-1.4,1-1.3,1-1.3,1-1.2,1.1-1.2,1.2-1.2,1.2-1.2,1.2-1.1,1.2-1.2,1.3-1.1,1.3-1.1,2.7-2.1,2.8-2,1.9-1.3,1.9-1.3,1.9-1.2,1.9-1.3,1.8-1.2,1.8-1.2,1.7-1.2,1.7-1.2,221-125v2.2s0-2.2,0-2.2l14.3,7.7,14.6,7.9,15,8.1,30.8,16.7,15.5,8.4,15.7,8.5,15.6,8.4,15.5,8.4,15.3,8.2,15,8.1,14.8,8,14.3,7.8,13.8,7.5,13.3,7.3,12.6,6.9,1.2.6,1.2.6,1.2.8,1.1.8,1.1.8,1.1.9,1.1.9,1,.9,1,1.1,1,1.1,1,1.1.9,1.2.9,1.2.8,1.2.8,1.3.9,1.3.7,1.4.7,1.4.7,1.4.6,1.6.6,1.6.6,1.6.5,1.7.5,1.7.4,1.8.4,1.7.3,1.9.3,1.8.2,1.9.2,1.9v2c.1,0,.2,2,.2,2l.2,4.2v4.3c.1,0,.2,4.3.2,4.3v4.5c.1,0,.2,4.5.2,4.5v4.6c.1,0,.2,4.6.2,4.6v9.2s0,4.6,0,4.6Z"/>
</svg>