<svg width="17" height="12" viewBox="0 0 17 12" fill="none" xmlns="http://www.w3.org/2000/svg">
<path d="M16.3894 1.89579C16.1997 1.16576 15.6409 0.58942 14.9331 0.390321C13.6394 0.0235596 8.46116 0.0235596 8.46116 0.0235596C8.46116 0.0235596 3.28292 0.0235596 1.98921 0.376349C1.29156 0.575448 0.719209 1.16576 0.529555 1.89579C0.1875 3.2301 0.1875 6.00003 0.1875 6.00003C0.1875 6.00003 0.1875 8.78392 0.529555 10.1043C0.719209 10.8343 1.27801 11.4106 1.98921 11.6097C3.29647 11.9765 8.46116 11.9765 8.46116 11.9765C8.46116 11.9765 13.6394 11.9765 14.9331 11.6237C15.6409 11.4281 16.1997 10.8518 16.3928 10.1217C16.7348 8.78741 16.7348 6.01749 16.7348 6.01749C16.7348 6.01749 16.7484 3.2336 16.3928 1.89928L16.3894 1.89579ZM6.80846 8.55688V3.43968L11.1129 5.99653L6.80846 8.55338V8.55688Z" fill="white"/>
</svg>
