<svg width="40" height="39" viewBox="0 0 40 39" fill="none" xmlns="http://www.w3.org/2000/svg">
<g clip-path="url(#clip0_2898_2401)">
<path d="M37.0273 36.0542H17.8717V38.4321H15.4189V28.648C15.4189 27.3985 16.4352 26.3913 17.6959 26.3913H37.142C38.4027 26.3913 39.4189 27.3985 39.4189 28.648V38.4321H37.0197V36.0542H37.0273Z" stroke="#30B6F9" stroke-width="1.5" stroke-linecap="round" stroke-linejoin="round"/>
<path d="M17.8105 26.3913V20.4239C17.8105 19.8332 18.2996 19.3486 18.8956 19.3486H35.9576C36.5536 19.3486 37.0426 19.8332 37.0426 20.4239V26.3913" stroke="#30B6F9" stroke-width="1.5" stroke-linecap="round" stroke-linejoin="round"/>
<path d="M20.1719 26.3913V23.2865C20.1719 22.7488 20.6074 22.3171 21.1499 22.3171H25.2149C25.7574 22.3171 26.1929 22.7488 26.1929 23.2865V26.3913" stroke="#30B6F9" stroke-width="1.5" stroke-linecap="round" stroke-linejoin="round"/>
<path d="M28.5996 26.3913V23.2865C28.5996 22.7488 29.0351 22.3171 29.5776 22.3171H33.6426C34.1851 22.3171 34.6206 22.7488 34.6206 23.2865V26.3913" stroke="#30B6F9" stroke-width="1.5" stroke-linecap="round" stroke-linejoin="round"/>
<path d="M0.573242 38.432H9.97916" stroke="#30B6F9" stroke-width="1.5" stroke-linecap="round" stroke-linejoin="round"/>
<path d="M4.77539 38.432V9.39026C4.77539 4.52094 8.76393 0.567932 13.6847 0.567932C18.6054 0.567932 22.5863 4.52094 22.5863 9.39026V9.57201" stroke="#30B6F9" stroke-width="1.5" stroke-linecap="round" stroke-linejoin="round"/>
<path d="M22.6628 9.60986C25.3372 9.60986 27.5072 11.7605 27.5072 14.411V15.6605H17.8262V14.411C17.8262 11.7605 19.9962 9.60986 22.6705 9.60986H22.6628Z" stroke="#30B6F9" stroke-width="1.5" stroke-linecap="round" stroke-linejoin="round"/>
</g>
<defs>
<clipPath id="clip0_2898_2401">
<rect width="40" height="39" fill="white"/>
</clipPath>
</defs>
</svg>
