<?xml version="1.0" encoding="UTF-8"?>
<svg id="Layer_1" xmlns="http://www.w3.org/2000/svg" version="1.1" viewBox="0 0 43 43">
  <!-- Generator: Adobe Illustrator 29.7.1, SVG Export Plug-In . SVG Version: 2.1.1 Build 8)  -->
  <defs>
    <style>
      .st0 {
        fill: none;
        stroke: #30b6f9;
        stroke-linecap: round;
        stroke-linejoin: round;
        stroke-width: 1.5px;
      }
    </style>
  </defs>
  <line class="st0" x1="39.87" y1="21.91" x2="41.5" y2="21.91"/>
  <line class="st0" x1="5.8" y1="21.91" x2="5.8" y2="33.34"/>
  <path class="st0" d="M1.5,20.24c0,6.94,8.61,6.94,8.61,0,0-3.06-1.93-10.58-4.3-10.58-2.38,0-4.3,7.52-4.3,10.58Z"/>
  <line class="st0" x1="32.93" y1="10.48" x2="32.93" y2="17.83"/>
  <path class="st0" d="M29.26,8.79c0,4.79,7.35,4.79,7.35,0,0-2.11-1.64-7.29-3.67-7.29s-3.67,5.18-3.67,7.29Z"/>
  <line class="st0" x1="1.5" y1="37.42" x2="3.13" y2="37.42"/>
  <line class="st0" x1="7.21" y1="37.42" x2="8.85" y2="37.42"/>
  <line class="st0" x1="18.64" y1="5.58" x2="18.64" y2="3.95"/>
  <line class="st0" x1="18.64" y1="11.3" x2="18.64" y2="9.66"/>
  <line class="st0" x1="34.15" y1="21.91" x2="35.79" y2="21.91"/>
  <line class="st0" x1="28.44" y1="21.91" x2="30.07" y2="21.91"/>
  <line class="st0" x1="22.72" y1="21.91" x2="24.36" y2="21.91"/>
  <line class="st0" x1="18.64" y1="17.01" x2="18.64" y2="15.38"/>
  <line class="st0" x1="18.64" y1="22.72" x2="18.64" y2="21.09"/>
  <line class="st0" x1="18.64" y1="28.44" x2="18.64" y2="26.81"/>
  <path class="st0" d="M12.93,37.42h3.27c1.35,0,2.45-1.1,2.45-2.45v-2.45"/>
  <path class="st0" d="M41.5,25.99h-16.33c-1.35,0-2.45,1.1-2.45,2.45v8.16c0,2.71-2.19,4.9-4.9,4.9H1.5"/>
  <path class="st0" d="M22.72,1.5v13.88c0,1.35,1.1,2.45,2.45,2.45h16.33"/>
  <path class="st0" d="M1.5,33.34h10.61c1.35,0,2.45-1.1,2.45-2.45V1.5"/>
</svg>