<svg width="64" height="65" viewBox="0 0 64 65" fill="none" xmlns="http://www.w3.org/2000/svg">
<g clip-path="url(#clip0_3796_1651)">
<path d="M32.0013 43.3544C38.3231 43.3544 43.448 38.2405 43.448 31.9321C43.448 25.6237 38.3231 20.5098 32.0013 20.5098C25.6795 20.5098 20.5547 25.6237 20.5547 31.9321C20.5547 38.2405 25.6795 43.3544 32.0013 43.3544Z" stroke="#30B6F9" stroke-width="1.5" stroke-linecap="round" stroke-linejoin="round"/>
<path d="M14.4805 18.9446C18.452 13.6184 24.8267 10.1602 31.9983 10.1602C44.052 10.1602 53.8164 19.9038 53.8164 31.932C53.8164 36.2611 52.5516 40.2873 50.3635 43.6825" stroke="#30B6F9" stroke-width="1.5" stroke-linecap="round" stroke-linejoin="round"/>
<path d="M13.5986 43.645C11.4358 40.2624 10.1836 36.2488 10.1836 31.9323C10.1836 29.9003 10.4619 27.9187 10.9931 26.0508" stroke="#30B6F9" stroke-width="1.5" stroke-linecap="round" stroke-linejoin="round"/>
<path d="M56.3477 12.697C60.5469 17.9854 63.0512 24.6621 63.0512 31.932C63.0512 38.2427 61.154 44.1242 57.9034 49.0213" stroke="#30B6F9" stroke-width="1.5" stroke-linecap="round" stroke-linejoin="round"/>
<path d="M6.07175 48.9842C2.8338 44.0871 0.949219 38.2308 0.949219 31.9201C0.949219 14.8181 14.8496 0.947266 32.0006 0.947266C39.6528 0.947266 46.6725 3.71134 52.086 8.2929" stroke="#30B6F9" stroke-width="1.5" stroke-linecap="round" stroke-linejoin="round"/>
<path d="M52.744 64.0535C52.744 52.6186 43.4602 43.3545 32.0009 43.3545C20.5416 43.3545 11.2578 52.6186 11.2578 64.0535H52.744Z" stroke="#30B6F9" stroke-width="1.5" stroke-linecap="round" stroke-linejoin="round"/>
</g>
<defs>
<clipPath id="clip0_3796_1651">
<rect width="64" height="65" fill="white"/>
</clipPath>
</defs>
</svg>
